<svg width="138" height="56" viewBox="0 0 138 56" fill="none" xmlns="http://www.w3.org/2000/svg">
<path d="M40.735 6.525C40.8817 6.59833 40.9183 6.745 40.845 6.965C40.8083 7.14833 40.6983 7.36833 40.515 7.625C40.3317 7.845 40.1117 8.065 39.855 8.285C39.635 8.505 39.415 8.67 39.195 8.78C38.3883 9 37.6917 9.33 37.105 9.77C36.5183 10.1733 35.9683 10.76 35.455 11.53C34.9783 12.3 34.52 13.3083 34.08 14.555C33.64 15.765 33.1817 17.3233 32.705 19.23C31.4217 24.18 29.57 28.3783 27.15 31.825C27.6267 31.7517 28.0667 31.6417 28.47 31.495C28.91 31.3483 29.2217 31.22 29.405 31.11C29.515 31.0733 29.5883 31.11 29.625 31.22C29.6617 31.2933 29.6433 31.385 29.57 31.495C29.2767 31.6783 28.8733 31.8617 28.36 32.045C27.8467 32.2283 27.315 32.3567 26.765 32.43C24.455 35.5467 21.7967 37.93 18.79 39.58C15.7833 41.1933 12.5383 42 9.055 42C6.37833 42 4.325 41.5233 2.895 40.57C1.465 39.6167 0.75 38.3883 0.75 36.885C0.75 35.6017 1.26333 34.3917 2.29 33.255C3.31667 32.0817 4.93 31.22 7.13 30.67C7.31333 30.7067 7.405 30.78 7.405 30.89C7.44167 31 7.42333 31.0917 7.35 31.165C5.11333 31.8983 3.995 33.2917 3.995 35.345C3.995 36.885 4.6 38.1133 5.81 39.03C7.02 39.9467 8.70667 40.405 10.87 40.405C13.73 40.405 16.2967 39.8183 18.57 38.645C20.8433 37.435 22.8417 35.4183 24.565 32.595C22.695 32.485 21.265 31.77 20.275 30.45C19.285 29.13 18.79 27.425 18.79 25.335C18.79 23.0617 19.395 20.8067 20.605 18.57C21.815 16.3333 23.4283 14.3167 25.445 12.52C27.4617 10.7233 29.79 9.275 32.43 8.175C35.1067 7.075 37.875 6.525 40.735 6.525ZM29.295 20.44C29.6983 18.79 30.1383 17.3783 30.615 16.205C31.0917 15.0317 31.6233 14.0233 32.21 13.18C32.7967 12.3 33.4567 11.5483 34.19 10.925C34.96 10.3017 35.84 9.715 36.83 9.165C34.3 9.45833 31.9717 10.1367 29.845 11.2C27.7183 12.2633 25.885 13.5467 24.345 15.05C22.805 16.5167 21.6133 18.13 20.77 19.89C19.9267 21.65 19.505 23.3917 19.505 25.115C19.505 27.315 19.9817 29.0017 20.935 30.175C21.8883 31.3117 23.19 31.935 24.84 32.045C26.5633 29.1117 28.0483 25.2433 29.295 20.44ZM31.9225 41.505C33.5725 35.1983 35.4609 29.515 37.5875 24.455C39.7509 19.395 42.0242 15.0867 44.4075 11.53C46.7909 7.97333 49.1925 5.24167 51.6125 3.335C54.0692 1.39166 56.3975 0.419998 58.5975 0.419998C59.5142 0.419998 60.2292 0.639998 60.7425 1.08C61.2925 1.48333 61.6592 1.99666 61.8425 2.62C62.0625 3.20666 62.0992 3.84833 61.9525 4.545C61.8059 5.24166 61.5309 5.865 61.1275 6.415C61.0175 6.525 60.9075 6.56166 60.7975 6.525C60.6875 6.48833 60.6325 6.39666 60.6325 6.25C60.8159 5.51667 60.6142 4.82 60.0275 4.16C59.4409 3.5 58.5059 3.17 57.2225 3.17C55.2425 3.17 53.3542 3.70166 51.5575 4.765C49.7975 5.82833 48.0742 7.60667 46.3875 10.1C44.7009 12.5567 43.0509 15.8383 41.4375 19.945C39.8242 24.015 38.1742 29.0933 36.4875 35.18C37.0375 34.19 37.6609 33.255 38.3575 32.375C39.0909 31.495 39.8792 30.725 40.7225 30.065C41.5659 29.405 42.4642 28.8917 43.4175 28.525C44.3709 28.1217 45.3609 27.92 46.3875 27.92C46.8275 27.92 47.1392 28.03 47.3225 28.25C47.5425 28.47 47.6525 28.7267 47.6525 29.02C47.6525 29.4967 47.4875 30.0283 47.1575 30.615C46.3875 31.9717 45.7642 33.365 45.2875 34.795C44.8109 36.225 44.5725 37.5267 44.5725 38.7C44.5725 39.2133 44.6275 39.635 44.7375 39.965C44.8475 40.295 45.0492 40.46 45.3425 40.46C45.7092 40.46 46.1125 40.2767 46.5525 39.91C46.9925 39.5067 47.3592 39.0667 47.6525 38.59C47.7625 38.5167 47.8725 38.535 47.9825 38.645C48.0925 38.7183 48.1292 38.81 48.0925 38.92C47.6159 39.7267 46.9375 40.4417 46.0575 41.065C45.2142 41.6883 44.4442 42 43.7475 42C43.1242 42 42.6109 41.835 42.2075 41.505C41.8042 41.1383 41.6025 40.5333 41.6025 39.69C41.6025 39.03 41.6575 38.3333 41.7675 37.6C41.9142 36.83 42.0792 36.0783 42.2625 35.345C42.4825 34.6117 42.7209 33.8967 42.9775 33.2C43.2709 32.4667 43.5825 31.8067 43.9125 31.22C44.0959 30.78 44.1875 30.4683 44.1875 30.285C44.1875 29.955 44.0042 29.79 43.6375 29.79C42.9409 29.79 42.1892 30.065 41.3825 30.615C40.5759 31.1283 39.7875 31.88 39.0175 32.87C38.2475 33.8233 37.4959 34.9783 36.7625 36.335C36.0659 37.6917 35.4609 39.195 34.9475 40.845C34.8742 41.1017 34.5809 41.3583 34.0675 41.615C33.5542 41.8717 32.9859 42 32.3625 42C31.9959 42 31.8492 41.835 31.9225 41.505ZM52.5046 42C50.9646 42 50.1946 41.1567 50.1946 39.47C50.1946 38.8833 50.2496 38.205 50.3596 37.435C50.5062 36.665 50.7079 35.8767 50.9646 35.07C51.2579 34.2267 51.5879 33.3833 51.9546 32.54C52.3212 31.6967 52.7612 30.89 53.2746 30.12C52.8712 30.3767 52.4862 30.6517 52.1196 30.945C51.7529 31.2017 51.4229 31.4767 51.1296 31.77C51.0196 31.8433 50.9096 31.825 50.7996 31.715C50.7262 31.5683 50.7262 31.44 50.7996 31.33C51.4229 30.67 52.3029 29.9917 53.4396 29.295C54.6129 28.5983 55.7312 28.0483 56.7946 27.645C56.9779 27.645 57.1062 27.7 57.1796 27.81C57.2896 27.8833 57.3079 27.9933 57.2346 28.14C56.0612 29.68 55.1079 31.3483 54.3746 33.145C53.6779 34.9417 53.3296 36.6833 53.3296 38.37C53.3296 39.4333 53.6596 39.965 54.3196 39.965C54.7962 39.965 55.3829 39.6533 56.0796 39.03C56.7762 38.37 57.5096 37.5267 58.2796 36.5C59.0496 35.4367 59.8196 34.245 60.5896 32.925C61.3962 31.605 62.1296 30.2667 62.7896 28.91C62.8996 28.69 63.2112 28.47 63.7246 28.25C64.2746 28.03 64.8246 27.92 65.3746 27.92C65.9246 27.92 66.0896 28.0667 65.8696 28.36C65.3562 29.3133 64.8979 30.2117 64.4946 31.055C64.1279 31.8617 63.8162 32.6683 63.5596 33.475C63.3029 34.2817 63.1012 35.1067 62.9546 35.95C62.8446 36.7567 62.7896 37.655 62.7896 38.645C62.7896 39.8183 63.1012 40.405 63.7246 40.405C64.3479 40.405 65.0446 39.855 65.8146 38.755C65.9246 38.6817 66.0346 38.6817 66.1446 38.755C66.2546 38.8283 66.2912 38.9383 66.2546 39.085C65.6312 40.0383 64.9346 40.7717 64.1646 41.285C63.4312 41.7617 62.7529 42 62.1296 42C60.5896 42 59.8196 41.1017 59.8196 39.305C59.8196 37.435 60.1496 35.5833 60.8096 33.75C59.4162 36.28 57.9496 38.2967 56.4096 39.8C54.8696 41.2667 53.5679 42 52.5046 42ZM83.9663 38.15C84.0396 38.0767 84.1313 38.095 84.2413 38.205C84.3513 38.2783 84.388 38.3883 84.3513 38.535C83.6913 39.4517 82.9213 40.2583 82.0413 40.955C81.198 41.6517 80.3546 42 79.5113 42C78.888 42 78.393 41.7983 78.0263 41.395C77.6963 40.9917 77.5313 40.46 77.5313 39.8C77.5313 38.5167 77.7513 37.1233 78.1913 35.62C78.668 34.1167 79.2913 32.595 80.0613 31.055C80.1713 30.7983 80.2263 30.5233 80.2263 30.23C80.2263 29.8633 80.0613 29.68 79.7313 29.68C78.3746 29.68 76.8713 30.615 75.2213 32.485C73.5713 34.3183 72.0496 37.2517 70.6563 41.285C70.6196 41.395 70.4913 41.505 70.2713 41.615C70.088 41.6883 69.868 41.7617 69.6113 41.835C69.3546 41.8717 69.098 41.9083 68.8413 41.945C68.5846 41.9817 68.383 42 68.2363 42C68.053 42 67.9063 41.9633 67.7963 41.89C67.723 41.8167 67.723 41.6883 67.7963 41.505C68.4196 39.9283 69.043 38.205 69.6663 36.335C70.3263 34.4283 70.8946 32.5217 71.3713 30.615C71.4813 30.2483 71.4996 29.9917 71.4263 29.845C71.353 29.6617 71.2246 29.57 71.0413 29.57C70.638 29.57 70.253 29.7533 69.8863 30.12C69.5196 30.45 69.1896 30.8167 68.8963 31.22C68.7863 31.2933 68.6763 31.275 68.5663 31.165C68.493 31.055 68.4746 30.945 68.5113 30.835C68.6946 30.5783 68.933 30.285 69.2263 29.955C69.5563 29.625 69.923 29.3133 70.3263 29.02C70.7296 28.69 71.1513 28.4333 71.5913 28.25C72.0313 28.03 72.4713 27.92 72.9113 27.92C73.5346 27.92 73.938 28.1217 74.1213 28.525C74.3413 28.8917 74.3963 29.35 74.2863 29.9C74.103 30.7067 73.9013 31.4767 73.6813 32.21C73.498 32.9067 73.2596 33.695 72.9663 34.575C73.4063 33.7683 73.938 32.98 74.5613 32.21C75.2213 31.4033 75.9363 30.6883 76.7063 30.065C77.513 29.405 78.3746 28.8917 79.2913 28.525C80.208 28.1217 81.1796 27.92 82.2063 27.92C82.6463 27.92 82.9763 28.03 83.1963 28.25C83.453 28.47 83.5813 28.7267 83.5813 29.02C83.5813 29.5333 83.453 29.9917 83.1963 30.395C82.4263 31.7883 81.7663 33.2367 81.2163 34.74C80.703 36.2067 80.4463 37.5267 80.4463 38.7C80.4463 39.6533 80.758 40.13 81.3813 40.13C81.7846 40.13 82.188 39.965 82.5913 39.635C82.9946 39.305 83.453 38.81 83.9663 38.15ZM101.141 38.535C101.214 38.4617 101.306 38.4617 101.416 38.535C101.526 38.6083 101.563 38.7183 101.526 38.865C100.866 39.8183 100.133 40.5883 99.3259 41.175C98.5192 41.725 97.7492 42 97.0159 42C96.1726 42 95.6226 41.4133 95.3659 40.24C95.1459 39.03 95.2742 37.6 95.7509 35.95C94.7609 37.5267 93.6792 38.8833 92.5059 40.02C91.3692 41.12 90.1592 41.78 88.8759 42C87.9959 42 87.3176 41.5967 86.8409 40.79C86.3642 39.9833 86.1259 39.0483 86.1259 37.985C86.1259 36.775 86.4192 35.5833 87.0059 34.41C87.5926 33.2 88.3626 32.1183 89.3159 31.165C90.3059 30.2117 91.3876 29.4417 92.5609 28.855C93.7709 28.2317 94.9809 27.92 96.1909 27.92C97.4742 27.92 98.4826 28.2317 99.2159 28.855C99.5826 28.5983 100.041 28.3783 100.591 28.195C101.178 28.0117 101.691 27.92 102.131 27.92C102.278 27.92 102.351 28.0117 102.351 28.195C101.508 29.2217 100.774 30.3583 100.151 31.605C99.5642 32.815 99.1059 33.9883 98.7759 35.125C98.4459 36.225 98.2442 37.215 98.1709 38.095C98.0976 38.975 98.1709 39.58 98.3909 39.91C98.5742 40.13 98.8859 40.2033 99.3259 40.13C99.7659 40.02 100.371 39.4883 101.141 38.535ZM90.5809 39.965C91.0209 39.965 91.5526 39.69 92.1759 39.14C92.8359 38.59 93.5142 37.8567 94.2109 36.94C94.9076 36.0233 95.5859 34.9967 96.2459 33.86C96.9426 32.7233 97.5476 31.5683 98.0609 30.395C97.9142 29.9183 97.5659 29.5333 97.0159 29.24C96.5026 28.9467 95.8976 28.8 95.2009 28.8C94.3576 28.8 93.5692 29.02 92.8359 29.46C92.1026 29.8633 91.4609 30.45 90.9109 31.22C90.3976 31.9533 89.9759 32.8517 89.6459 33.915C89.3526 34.9417 89.2059 36.0783 89.2059 37.325C89.2059 38.1317 89.3342 38.7733 89.5909 39.25C89.8842 39.7267 90.2142 39.965 90.5809 39.965ZM116.549 29.515C116.696 29.1483 117.099 28.8 117.759 28.47C118.419 28.1033 119.006 27.92 119.519 27.92C119.849 27.92 119.977 28.0483 119.904 28.305C119.097 30.5783 118.291 32.7967 117.484 34.96C116.714 37.0867 115.907 39.2867 115.064 41.56C113.231 46.29 110.939 49.7733 108.189 52.01C105.476 54.2467 102.579 55.365 99.4991 55.365C97.3724 55.365 95.7041 54.87 94.4941 53.88C93.2841 52.89 92.6791 51.6983 92.6791 50.305C92.6791 49.4983 92.9541 48.71 93.5041 47.94C94.0541 47.17 94.8057 46.62 95.7591 46.29C95.9057 46.2533 96.0157 46.29 96.0891 46.4C96.1624 46.51 96.1624 46.62 96.0891 46.73C95.5024 47.3533 95.2091 48.1417 95.2091 49.095C95.2091 50.635 95.6857 51.8817 96.6391 52.835C97.5924 53.7883 98.9674 54.265 100.764 54.265C102.047 54.265 103.221 54.0633 104.284 53.66C105.347 53.2567 106.337 52.5417 107.254 51.515C108.207 50.4883 109.124 49.1133 110.004 47.39C110.884 45.6667 111.782 43.5033 112.699 40.9C113.139 39.69 113.524 38.6083 113.854 37.655C114.221 36.7017 114.587 35.6567 114.954 34.52C114.257 35.62 113.542 36.6283 112.809 37.545C112.076 38.4617 111.324 39.25 110.554 39.91C109.821 40.57 109.106 41.0833 108.409 41.45C107.712 41.8167 107.071 42 106.484 42C105.751 42 105.219 41.78 104.889 41.34C104.559 40.9 104.394 40.295 104.394 39.525C104.394 38.2417 104.651 36.775 105.164 35.125C105.714 33.4383 106.447 31.825 107.364 30.285C106.961 30.5417 106.594 30.78 106.264 31C105.934 31.22 105.622 31.4767 105.329 31.77C105.219 31.8433 105.109 31.825 104.999 31.715C104.926 31.5683 104.926 31.44 104.999 31.33C105.256 31.0733 105.604 30.7983 106.044 30.505C106.484 30.175 106.961 29.8633 107.474 29.57C107.987 29.2767 108.501 28.9833 109.014 28.69C109.564 28.3967 110.096 28.14 110.609 27.92C110.976 27.92 111.122 28.085 111.049 28.415C110.462 29.1483 109.931 29.9733 109.454 30.89C109.014 31.77 108.629 32.6683 108.299 33.585C107.969 34.465 107.712 35.345 107.529 36.225C107.382 37.105 107.309 37.8933 107.309 38.59C107.309 39.6167 107.639 40.13 108.299 40.13C108.886 40.13 109.582 39.7633 110.389 39.03C111.196 38.2967 111.984 37.3983 112.754 36.335C113.561 35.235 114.294 34.08 114.954 32.87C115.651 31.6233 116.182 30.505 116.549 29.515ZM136.375 38.535C136.449 38.4617 136.54 38.4617 136.65 38.535C136.76 38.6083 136.797 38.7183 136.76 38.865C136.1 39.8183 135.367 40.5883 134.56 41.175C133.754 41.725 132.984 42 132.25 42C131.407 42 130.857 41.4133 130.6 40.24C130.38 39.03 130.509 37.6 130.985 35.95C129.995 37.5267 128.914 38.8833 127.74 40.02C126.604 41.12 125.394 41.78 124.11 42C123.23 42 122.552 41.5967 122.075 40.79C121.599 39.9833 121.36 39.0483 121.36 37.985C121.36 36.775 121.654 35.5833 122.24 34.41C122.827 33.2 123.597 32.1183 124.55 31.165C125.54 30.2117 126.622 29.4417 127.795 28.855C129.005 28.2317 130.215 27.92 131.425 27.92C132.709 27.92 133.717 28.2317 134.45 28.855C134.817 28.5983 135.275 28.3783 135.825 28.195C136.412 28.0117 136.925 27.92 137.365 27.92C137.512 27.92 137.585 28.0117 137.585 28.195C136.742 29.2217 136.009 30.3583 135.385 31.605C134.799 32.815 134.34 33.9883 134.01 35.125C133.68 36.225 133.479 37.215 133.405 38.095C133.332 38.975 133.405 39.58 133.625 39.91C133.809 40.13 134.12 40.2033 134.56 40.13C135 40.02 135.605 39.4883 136.375 38.535ZM125.815 39.965C126.255 39.965 126.787 39.69 127.41 39.14C128.07 38.59 128.749 37.8567 129.445 36.94C130.142 36.0233 130.82 34.9967 131.48 33.86C132.177 32.7233 132.782 31.5683 133.295 30.395C133.149 29.9183 132.8 29.5333 132.25 29.24C131.737 28.9467 131.132 28.8 130.435 28.8C129.592 28.8 128.804 29.02 128.07 29.46C127.337 29.8633 126.695 30.45 126.145 31.22C125.632 31.9533 125.21 32.8517 124.88 33.915C124.587 34.9417 124.44 36.0783 124.44 37.325C124.44 38.1317 124.569 38.7733 124.825 39.25C125.119 39.7267 125.449 39.965 125.815 39.965Z" fill="#7c3aed"/>
</svg>
